<?xml version="1.0" standalone="no"?>
<!DOCTYPE svg PUBLIC "-//W3C//DTD SVG 20010904//EN"
 "http://www.w3.org/TR/2001/REC-SVG-20010904/DTD/svg10.dtd">
<svg version="1.0" xmlns="http://www.w3.org/2000/svg"
 width="64.000000pt" height="64.000000pt" viewBox="0 0 64.000000 64.000000"
 preserveAspectRatio="xMidYMid meet">

<g transform="translate(0.000000,64.000000) scale(0.100000,-0.100000)"
fill="#000000" stroke="none">
<path d="M484 542 c-132 -109 -282 -256 -293 -285 -8 -19 -18 -27 -35 -27 -34
0 -76 -52 -76 -95 0 -25 -8 -40 -30 -59 -29 -24 -29 -26 -11 -36 24 -13 72
-13 104 -1 41 16 95 70 102 102 4 18 16 34 28 38 35 14 291 287 342 365 13 19
14 29 5 45 -18 35 -51 24 -136 -47z m62 -42 c-31 -38 -95 -109 -140 -158 l-84
-87 -26 24 c-14 14 -26 27 -26 31 0 7 228 213 277 250 62 47 62 18 -1 -60z
m-266 -235 c23 -24 23 -25 5 -45 -39 -43 -93 -3 -60 46 19 30 26 30 55 -1z
m-78 -72 c27 -24 22 -55 -15 -91 -30 -29 -92 -60 -102 -50 -2 2 2 22 10 43 8
22 14 46 15 54 0 20 40 61 58 61 9 0 24 -7 34 -17z"/>
</g>
</svg>
