<?xml version="1.0" standalone="no"?>
<!DOCTYPE svg PUBLIC "-//W3C//DTD SVG 20010904//EN"
 "http://www.w3.org/TR/2001/REC-SVG-20010904/DTD/svg10.dtd">
<svg version="1.0" xmlns="http://www.w3.org/2000/svg"
 width="2917.000000pt" height="2917.000000pt" viewBox="0 0 2917.000000 2917.000000"
 preserveAspectRatio="xMidYMid meet">

<g transform="translate(0.000000,2917.000000) scale(0.100000,-0.100000)"
fill="#000000" stroke="none">
<path d="M2145 21563 c-56 -7 -180 -45 -230 -70 -175 -88 -297 -225 -367 -415
-26 -70 -31 -101 -36 -204 -6 -153 12 -240 76 -367 38 -76 61 -107 136 -182
l91 -90 285 -146 c456 -235 24500 -12403 24555 -12427 347 -153 765 5 934 352
53 108 72 194 73 320 0 241 -118 467 -313 597 -30 20 -5551 2819 -12269 6219
-6718 3400 -12300 6226 -12405 6279 -127 65 -215 103 -265 115 -73 17 -204 27
-265 19z"/>
</g>
</svg>
